<svg width="24" height="24" viewBox="0 0 24 24" fill="none" xmlns="http://www.w3.org/2000/svg">
<path d="M1.98371 0.317131C1.65216 0.317218 1.32816 0.416182 1.05314 0.601372C0.778127 0.786561 0.564588 1.04956 0.439827 1.35675C0.315065 1.66393 0.284749 2.00135 0.352756 2.32586C0.420763 2.65036 0.584001 2.94721 0.821602 3.17846L9.64322 12.0001L0.821602 20.8217C0.661647 20.9753 0.533942 21.1592 0.445967 21.3628C0.357992 21.5663 0.311516 21.7854 0.30926 22.0071C0.307004 22.2288 0.349014 22.4488 0.432829 22.6541C0.516644 22.8594 0.64058 23.0459 0.797378 23.2027C0.954176 23.3595 1.14068 23.4834 1.34598 23.5672C1.55127 23.651 1.77123 23.6931 1.99296 23.6908C2.2147 23.6885 2.43375 23.6421 2.6373 23.5541C2.84085 23.4661 3.0248 23.3384 3.17837 23.1785L12 14.3568L20.8216 23.1785C20.9752 23.3384 21.1591 23.4661 21.3627 23.5541C21.5662 23.6421 21.7853 23.6886 22.007 23.6908C22.2287 23.6931 22.4487 23.6511 22.654 23.5672C22.8593 23.4834 23.0458 23.3595 23.2026 23.2027C23.3594 23.0459 23.4833 22.8594 23.5672 22.6541C23.651 22.4488 23.693 22.2288 23.6907 22.0071C23.6885 21.7854 23.642 21.5663 23.554 21.3628C23.466 21.1592 23.3383 20.9753 23.1784 20.8217L14.3568 12.0001L23.1784 3.17846C23.4192 2.94435 23.5837 2.64295 23.6503 2.31375C23.7169 1.98455 23.6825 1.64291 23.5516 1.3336C23.4207 1.0243 23.1994 0.761746 22.9167 0.580364C22.634 0.398982 22.3032 0.30723 21.9674 0.317131C21.5344 0.330033 21.1235 0.510998 20.8216 0.821688L12 9.6433L3.17837 0.821688C3.02306 0.662031 2.83732 0.535123 2.63212 0.448461C2.42693 0.3618 2.20645 0.317144 1.98371 0.317131V0.317131Z" fill="black"/>
</svg>
