<svg width="40" height="40" viewBox="0 0 40 40" fill="none" xmlns="http://www.w3.org/2000/svg">
<path d="M18.9058 33.2576L18.9059 33.2576L18.8962 33.25C16.6307 31.471 13.1269 28.6247 10.1934 25.2046C7.23666 21.7574 5 17.8881 5 14.0599C5 9.79219 8.45885 6.33334 12.7266 6.33334C14.728 6.33334 16.3314 7.20099 17.4638 8.11238C18.0276 8.56615 18.4615 9.02072 18.7526 9.35979C18.8977 9.52878 19.006 9.66751 19.076 9.76093C19.111 9.8076 19.1362 9.84281 19.1517 9.86467L19.1673 9.88715L19.1687 9.88917L19.1692 9.88992L19.1692 9.88993L19.1695 9.89039L20 11.1361L20.8305 9.89039L20.8308 9.88993L20.8313 9.88917L20.8316 9.88866L20.832 9.88806L20.8327 9.88715L20.8484 9.86467C20.8638 9.84281 20.889 9.8076 20.924 9.76093C20.994 9.66751 21.1023 9.52878 21.2474 9.35979C21.5385 9.02072 21.9724 8.56615 22.5362 8.11238C23.6686 7.20099 25.272 6.33334 27.2734 6.33334C31.5412 6.33334 35 9.79219 35 14.0599C35 17.8973 32.7516 21.7767 29.7837 25.2305C26.8393 28.6571 23.3264 31.5057 21.0675 33.2785L21.0384 33.3013L21.0356 33.3039L21.0013 33.3298C20.713 33.5476 20.3618 33.6658 20.0005 33.6667C19.6397 33.6655 19.2891 33.5473 19.0013 33.3298L18.9066 33.2582L18.9058 33.2576Z" stroke="#F57600" stroke-width="2"/>
</svg>
