<svg width="36" height="36" viewBox="0 0 36 36" fill="none" xmlns="http://www.w3.org/2000/svg">
<path d="M4.66667 0.5C3.5616 0.5 2.50179 0.938987 1.72039 1.72039C0.938987 2.50179 0.5 3.5616 0.5 4.66667C0.5 5.77174 0.938987 6.83154 1.72039 7.61294C2.50179 8.39435 3.5616 8.83333 4.66667 8.83333C5.77174 8.83333 6.83154 8.39435 7.61294 7.61294C8.39435 6.83154 8.83333 5.77174 8.83333 4.66667C8.83333 3.5616 8.39435 2.50179 7.61294 1.72039C6.83154 0.938987 5.77174 0.5 4.66667 0.5ZM18 0.5C16.8949 0.5 15.8351 0.938987 15.0537 1.72039C14.2723 2.50179 13.8333 3.5616 13.8333 4.66667C13.8333 5.77174 14.2723 6.83154 15.0537 7.61294C15.8351 8.39435 16.8949 8.83333 18 8.83333C19.1051 8.83333 20.1649 8.39435 20.9463 7.61294C21.7277 6.83154 22.1667 5.77174 22.1667 4.66667C22.1667 3.5616 21.7277 2.50179 20.9463 1.72039C20.1649 0.938987 19.1051 0.5 18 0.5ZM31.3333 0.5C30.2283 0.5 29.1685 0.938987 28.3871 1.72039C27.6057 2.50179 27.1667 3.5616 27.1667 4.66667C27.1667 5.77174 27.6057 6.83154 28.3871 7.61294C29.1685 8.39435 30.2283 8.83333 31.3333 8.83333C32.4384 8.83333 33.4982 8.39435 34.2796 7.61294C35.061 6.83154 35.5 5.77174 35.5 4.66667C35.5 3.5616 35.061 2.50179 34.2796 1.72039C33.4982 0.938987 32.4384 0.5 31.3333 0.5ZM4.66667 13.8333C3.5616 13.8333 2.50179 14.2723 1.72039 15.0537C0.938987 15.8351 0.5 16.8949 0.5 18C0.5 19.1051 0.938987 20.1649 1.72039 20.9463C2.50179 21.7277 3.5616 22.1667 4.66667 22.1667C5.77174 22.1667 6.83154 21.7277 7.61294 20.9463C8.39435 20.1649 8.83333 19.1051 8.83333 18C8.83333 16.8949 8.39435 15.8351 7.61294 15.0537C6.83154 14.2723 5.77174 13.8333 4.66667 13.8333ZM18 13.8333C16.8949 13.8333 15.8351 14.2723 15.0537 15.0537C14.2723 15.8351 13.8333 16.8949 13.8333 18C13.8333 19.1051 14.2723 20.1649 15.0537 20.9463C15.8351 21.7277 16.8949 22.1667 18 22.1667C19.1051 22.1667 20.1649 21.7277 20.9463 20.9463C21.7277 20.1649 22.1667 19.1051 22.1667 18C22.1667 16.8949 21.7277 15.8351 20.9463 15.0537C20.1649 14.2723 19.1051 13.8333 18 13.8333ZM31.3333 13.8333C30.2283 13.8333 29.1685 14.2723 28.3871 15.0537C27.6057 15.8351 27.1667 16.8949 27.1667 18C27.1667 19.1051 27.6057 20.1649 28.3871 20.9463C29.1685 21.7277 30.2283 22.1667 31.3333 22.1667C32.4384 22.1667 33.4982 21.7277 34.2796 20.9463C35.061 20.1649 35.5 19.1051 35.5 18C35.5 16.8949 35.061 15.8351 34.2796 15.0537C33.4982 14.2723 32.4384 13.8333 31.3333 13.8333ZM4.66667 27.1667C3.5616 27.1667 2.50179 27.6057 1.72039 28.3871C0.938987 29.1685 0.5 30.2283 0.5 31.3333C0.5 32.4384 0.938987 33.4982 1.72039 34.2796C2.50179 35.061 3.5616 35.5 4.66667 35.5C5.77174 35.5 6.83154 35.061 7.61294 34.2796C8.39435 33.4982 8.83333 32.4384 8.83333 31.3333C8.83333 30.2283 8.39435 29.1685 7.61294 28.3871C6.83154 27.6057 5.77174 27.1667 4.66667 27.1667ZM18 27.1667C16.8949 27.1667 15.8351 27.6057 15.0537 28.3871C14.2723 29.1685 13.8333 30.2283 13.8333 31.3333C13.8333 32.4384 14.2723 33.4982 15.0537 34.2796C15.8351 35.061 16.8949 35.5 18 35.5C19.1051 35.5 20.1649 35.061 20.9463 34.2796C21.7277 33.4982 22.1667 32.4384 22.1667 31.3333C22.1667 30.2283 21.7277 29.1685 20.9463 28.3871C20.1649 27.6057 19.1051 27.1667 18 27.1667ZM31.3333 27.1667C30.2283 27.1667 29.1685 27.6057 28.3871 28.3871C27.6057 29.1685 27.1667 30.2283 27.1667 31.3333C27.1667 32.4384 27.6057 33.4982 28.3871 34.2796C29.1685 35.061 30.2283 35.5 31.3333 35.5C32.4384 35.5 33.4982 35.061 34.2796 34.2796C35.061 33.4982 35.5 32.4384 35.5 31.3333C35.5 30.2283 35.061 29.1685 34.2796 28.3871C33.4982 27.6057 32.4384 27.1667 31.3333 27.1667Z" fill="#282626"/>
</svg>
